HIERARCHY
ROOT Hips
{
	OFFSET 0.00000 0.00000 0.00000
	CHANNELS 6 Xposition Yposition Zposition Zrotation Yrotation Xrotation 
	JOINT RightUpLegDummy
	{
		OFFSET 0 0 0
		CHANNELS 3 Zrotation Yrotation Xrotation
		JOINT RightUpLeg
		{
			OFFSET -3.52197 -3.41223 0.04002
			CHANNELS 3 Zrotation Yrotation Xrotation
			JOINT RightLeg
			{
				OFFSET 0.00006 -17.42390 1.60435
				CHANNELS 3 Zrotation Yrotation Xrotation
				JOINT RightFoot
				{
					OFFSET 0.06154 -16.50078 -1.63900
					CHANNELS 3 Zrotation Yrotation Xrotation
					JOINT RightToes
					{
						OFFSET 0.00298 -1.73825 3.34613
						CHANNELS 3 Zrotation Yrotation Xrotation
						End Site
						{
							OFFSET 0.00480 -0.05416 3.85043
						}
					}
				}
			}
		}
	}
	JOINT SpineDummy
	{
		OFFSET 0 0 0
		CHANNELS 3 Zrotation Yrotation Xrotation
		JOINT Spine
		{
			OFFSET 0.00000 4.68130 0.00000
			CHANNELS 3 Zrotation Yrotation Xrotation
			JOINT Spine1
			{
				OFFSET -0.00000 10.10138 0.05002
				CHANNELS 3 Zrotation Yrotation Xrotation
				JOINT HEadDummy
				{
					OFFSET 0 0 0
					CHANNELS 3 Zrotation Yrotation Xrotation
					JOINT Head
					{
						OFFSET -0.00000 3.43865 0.00438
						CHANNELS 3 Zrotation Yrotation Xrotation
						End Site
						{
							OFFSET -0.11417 5.02924 0.98962
						}
					}
				}
				JOINT LeftShoulder1Dummy
				{
					OFFSET 0 0 0
					CHANNELS 3 Zrotation Yrotation Xrotation
					JOINT LeftShoulder1
					{
						OFFSET 3.53937 -0.14262 -0.08662
						CHANNELS 3 Zrotation Yrotation Xrotation
						JOINT LeftArm
						{
							OFFSET 4.04833 -0.00133 0.12681
							CHANNELS 3 Zrotation Yrotation Xrotation
							JOINT LeftForeArm
							{
								OFFSET 10.33880 -0.01036 -0.55515
								CHANNELS 3 Zrotation Yrotation Xrotation
								JOINT LeftHand
								{
									OFFSET 8.69677 0.07543 0.40060
									CHANNELS 3 Zrotation Yrotation Xrotation
									End Site
									{
										OFFSET 5.28377 -0.21905 0.59205
									}
								}
							}
						}
					}
				}
				JOINT RightShoulderDummy
				{
					OFFSET 0 0 0
					CHANNELS 3 Zrotation Yrotation Xrotation
					JOINT RightShoulder
					{
						OFFSET -3.53937 -0.14262 -0.08660
						CHANNELS 3 Zrotation Yrotation Xrotation
						JOINT RightArm
						{
							OFFSET -4.04833 -0.00133 0.12683
							CHANNELS 3 Zrotation Yrotation Xrotation
							JOINT RightForeArm
							{
								OFFSET -10.37987 -0.01039 -0.55511
								CHANNELS 3 Zrotation Yrotation Xrotation
								JOINT RightHand
								{
									OFFSET -8.67398 0.07538 0.40058
									CHANNELS 3 Zrotation Yrotation Xrotation
									End Site
									{
										OFFSET -5.24810 -0.21916 0.59204
									}
								}
							}
						}
					}
				}
			}
		}
	}
	JOINT LeftUpLegDummy
	{
		OFFSET 0 0 0
		CHANNELS 3 Zrotation Yrotation Xrotation
		JOINT LeftUpLeg
		{
			OFFSET 3.52197 -3.41223 0.04002
			CHANNELS 3 Zrotation Yrotation Xrotation
			JOINT LeftLeg
			{
				OFFSET -0.00012 -17.42399 1.60337
				CHANNELS 3 Zrotation Yrotation Xrotation
				JOINT LeftFoot
				{
					OFFSET -0.09972 -16.50070 -1.63802
					CHANNELS 3 Zrotation Yrotation Xrotation
					JOINT LeftToes
					{
						OFFSET -0.01575 -1.73823 3.34611
						CHANNELS 3 Zrotation Yrotation Xrotation
						End Site
						{
							OFFSET 0.03150 -0.01868 3.85031
						}
					}
				}
			}
		}
	}
}
MOTION
Frames: 12
Frame Time: 0.033333
-4.2260 39.2273 10.8869 178.8970 51.6255 -178.3780 0.0000 0.0000 0.0000 -3.1576 -12.3140 -17.4222 -5.0184 -12.4224 16.7513 9.0357 -1.0315 1.7605 0.0000 0.0000 -0.0000 0.0000 0.0000 0.0000 -13.9721 0.1878 8.4180 3.1636 -2.8187 30.6580 0.0000 0.0000 0.0000 -19.9056 39.3389 -32.6763 0.0000 0.0000 0.0000 -18.5247 -7.7055 2.8106 -51.9184 -33.4707 19.4310 -34.8353 -86.2981 -8.4578 21.6673 3.7283 -0.3287 0.0000 0.0000 0.0000 11.3854 0.9103 0.8096 60.6257 11.7950 13.7542 178.3717 75.7495 179.0475 -10.5137 3.0012 -0.7355 0.0000 0.0000 0.0000 8.5525 2.8747 0.3103 1.1265 -13.1402 8.3108 -12.9129 -0.0788 -12.6311 0.0000 0.0000 0.0000
-4.2285 39.2273 10.8949 178.8770 51.6255 -178.3660 0.0000 0.0000 0.0000 -3.1412 -12.3762 -17.4762 -4.9981 -12.3625 16.7530 9.0009 -1.0292 1.7514 0.0000 0.0000 -0.0000 0.0000 0.0000 0.0000 -14.0440 0.1827 8.3942 3.2228 -2.8558 30.6497 0.0000 0.0000 0.0000 -20.0261 39.4220 -32.7732 0.0000 0.0000 0.0000 -18.6076 -7.6343 2.8013 -51.8383 -33.4785 19.4813 -34.8981 -86.3031 -8.3260 21.6183 3.7396 -0.3259 0.0000 0.0000 0.0000 11.2565 0.9089 0.8096 60.7478 11.8254 13.8119 178.3308 75.7686 178.8460 -10.6881 3.0270 -0.7504 0.0000 0.0000 0.0000 8.5346 2.8530 0.2597 1.1448 -13.0939 8.3321 -12.9095 -0.0790 -12.6311 0.0000 0.0000 0.0000
-4.2337 39.2273 10.9079 178.8600 51.6262 -178.3470 0.0000 0.0000 0.0000 -3.1156 -12.4621 -17.5371 -4.9645 -12.2888 16.7505 8.9623 -1.0268 1.7523 0.0000 0.0000 -0.0000 0.0000 0.0000 0.0000 -14.1614 0.1726 8.3503 3.3446 -2.9318 30.6662 0.0000 0.0000 0.0000 -20.1747 39.5131 -32.9044 0.0000 0.0000 0.0000 -18.7719 -7.5134 2.7876 -51.7373 -33.5191 19.5531 -34.8725 -86.3012 -8.2623 21.5707 3.8141 -0.3117 0.0000 0.0000 0.0000 11.0128 0.9312 0.8097 60.9808 11.8616 13.8810 178.2915 75.7947 178.6155 -10.9127 3.0322 -0.7673 0.0000 0.0000 0.0000 8.5156 2.8122 0.1940 1.1787 -13.0374 8.3564 -12.9343 -0.0775 -12.6314 0.0000 0.0000 0.0000
-4.2397 39.2273 10.9200 178.8740 51.6343 -178.3260 0.0000 0.0000 0.0000 -3.0855 -12.5038 -17.5605 -4.9331 -12.2494 16.7256 8.9382 -1.0253 1.7682 0.0000 0.0000 -0.0000 0.0000 0.0000 0.0000 -14.2199 0.1627 8.3191 3.4179 -2.9815 30.6976 0.0000 0.0000 0.0000 -20.2273 39.5345 -32.9970 0.0000 0.0000 0.0000 -18.8816 -7.4283 2.7772 -51.7465 -33.5852 19.5984 -34.5591 -86.2736 -8.5478 21.5588 3.9331 -0.2899 0.0000 0.0000 0.0000 10.8636 0.9605 0.8103 61.1326 11.8810 13.9151 178.2835 75.8120 178.5800 -10.9931 3.0138 -0.7715 0.0000 0.0000 0.0000 8.5153 2.7733 0.1571 1.2195 -12.9930 8.3711 -12.9839 -0.0743 -12.6321 0.0000 0.0000 0.0000
-4.2461 39.2275 10.9320 178.8950 51.6597 -178.3090 0.0000 0.0000 0.0000 -3.0583 -12.4985 -17.5718 -4.9117 -12.2365 16.6951 8.9222 -1.0243 1.7859 0.0000 0.0000 -0.0000 0.0000 0.0000 0.0000 -14.1706 0.1535 8.3264 3.3524 -2.9567 30.6871 0.0000 0.0000 0.0000 -20.1739 39.5183 -33.0442 0.0000 0.0000 0.0000 -18.8389 -7.4158 2.7697 -51.8788 -33.6582 19.6240 -33.9113 -86.2111 -9.1949 21.5249 4.0017 -0.2771 0.0000 0.0000 0.0000 10.9540 0.9471 0.8108 61.0659 11.9007 13.9351 178.2884 75.8246 178.6159 -11.0126 2.9929 -0.7711 0.0000 0.0000 0.0000 8.5224 2.7459 0.1356 1.2542 -12.9538 8.3831 -13.0349 -0.0720 -12.6328 0.0000 0.0000 0.0000
-4.2536 39.2276 10.9457 178.8890 51.6812 -178.3040 0.0000 0.0000 0.0000 -3.0454 -12.4818 -17.5977 -4.9009 -12.2388 16.6685 8.9044 -1.0232 1.7978 0.0000 0.0000 -0.0000 0.0000 0.0000 0.0000 -14.0579 0.1397 8.3599 3.1879 -2.8835 30.6143 0.0000 0.0000 0.0000 -20.0905 39.5234 -33.0510 0.0000 0.0000 0.0000 -18.7159 -7.4388 2.7631 -51.9869 -33.7171 19.6560 -33.1791 -86.1391 -9.8907 21.4539 3.9642 -0.2830 0.0000 0.0000 0.0000 11.1835 0.8903 0.8114 60.8763 11.9290 13.9607 178.2705 75.8396 178.5257 -11.1393 2.9706 -0.7784 0.0000 0.0000 0.0000 8.5175 2.7231 0.0971 1.2738 -12.9195 8.4032 -13.0730 -0.0722 -12.6293 0.0000 0.0000 0.0000
-4.2615 39.2279 10.9594 178.8720 51.6798 -178.2950 0.0000 0.0000 0.0000 -3.0422 -12.4649 -17.6227 -4.8933 -12.2687 16.6257 8.8797 -1.0217 1.8128 0.0000 0.0000 -0.0000 0.0000 0.0000 0.0000 -13.9421 0.1183 8.3733 3.0289 -2.8180 30.5386 0.0000 0.0000 0.0000 -20.0499 39.5462 -33.0224 0.0000 0.0000 0.0000 -18.6387 -7.4460 2.7571 -51.9636 -33.7476 19.6947 -32.6563 -86.0885 -10.3295 21.3909 3.8655 -0.3001 0.0000 0.0000 0.0000 11.3317 0.8456 0.8119 60.7750 11.9461 13.9740 178.2377 75.8487 178.3812 -11.3225 2.9504 -0.7899 0.0000 0.0000 0.0000 8.5070 2.6999 0.0363 1.2837 -12.9000 8.4310 -13.0911 -0.0725 -12.6130 0.0000 0.0000 0.0000
-4.2690 39.2281 10.9707 178.8770 51.6715 -178.2670 0.0000 0.0000 0.0000 -3.0335 -12.4272 -17.6274 -4.8823 -12.3292 16.5540 8.8546 -1.0202 1.8411 0.0000 0.0000 -0.0000 0.0000 0.0000 0.0000 -13.8267 0.0968 8.3508 2.9038 -2.7665 30.5123 0.0000 0.0000 0.0000 -20.0285 39.5441 -32.9639 0.0000 0.0000 0.0000 -18.5883 -7.4401 2.7505 -51.9086 -33.7467 19.7228 -32.2993 -86.0567 -10.5572 21.3287 3.7792 -0.3148 0.0000 0.0000 0.0000 11.3478 0.8433 0.8125 60.8015 11.9380 13.9604 178.2395 75.8405 178.3756 -11.3876 2.9544 -0.7949 0.0000 0.0000 0.0000 8.5096 2.6837 -0.0212 1.2941 -12.8946 8.4500 -13.0942 -0.0732 -12.5935 0.0000 0.0000 0.0000
-4.2769 39.2283 10.9816 178.8890 51.6828 -178.2430 0.0000 0.0000 0.0000 -3.0297 -12.3658 -17.6289 -4.8742 -12.3896 16.4894 8.8410 -1.0194 1.8767 0.0000 0.0000 -0.0000 0.0000 0.0000 0.0000 -13.7114 0.0888 8.3470 2.7809 -2.7032 30.4849 0.0000 0.0000 0.0000 -19.9410 39.5160 -32.8663 0.0000 0.0000 0.0000 -18.4765 -7.4489 2.7413 -51.9491 -33.7080 19.7376 -32.0556 -86.0374 -10.6574 21.2535 3.7277 -0.3230 0.0000 0.0000 0.0000 11.3748 0.8568 0.8130 60.8021 11.9179 13.9447 178.2657 75.8262 178.4701 -11.3477 2.9959 -0.7958 0.0000 0.0000 0.0000 8.5180 2.6754 -0.0524 1.3061 -12.8877 8.4465 -13.1034 -0.0732 -12.5793 0.0000 0.0000 0.0000
-4.2860 39.2284 10.9949 178.8640 51.7048 -178.2620 0.0000 0.0000 0.0000 -3.0390 -12.3109 -17.6520 -4.8822 -12.4243 16.4776 8.8348 -1.0191 1.9024 0.0000 0.0000 -0.0000 0.0000 0.0000 0.0000 -13.6494 0.0990 8.4189 2.6884 -2.6458 30.3752 0.0000 0.0000 0.0000 -19.7907 39.5032 -32.7282 0.0000 0.0000 0.0000 -18.3626 -7.4590 2.7323 -51.9998 -33.6230 19.7487 -32.2629 -86.0625 -10.4064 21.2689 3.6982 -0.3285 0.0000 0.0000 0.0000 11.4938 0.8603 0.8135 60.6899 11.9025 13.9599 178.2724 75.8340 178.5210 -11.3557 3.0547 -0.8017 0.0000 0.0000 0.0000 8.5061 2.6582 -0.0655 1.3169 -12.8687 8.4321 -13.1285 -0.0718 -12.5697 0.0000 0.0000 0.0000
-4.2954 39.2285 11.0095 178.8140 51.7017 -178.3010 0.0000 0.0000 0.0000 -3.0595 -12.2818 -17.6941 -4.9065 -12.4531 16.5074 8.8191 -1.0181 1.9121 0.0000 0.0000 -0.0000 0.0000 0.0000 0.0000 -13.6799 0.1163 8.5255 2.7014 -2.6432 30.2214 0.0000 0.0000 0.0000 -19.7056 39.5239 -32.6067 0.0000 0.0000 0.0000 -18.3825 -7.4350 2.7283 -51.9123 -33.5115 19.7591 -33.1898 -86.1541 -9.6070 21.4640 3.6902 -0.3327 0.0000 0.0000 0.0000 11.5976 0.8618 0.8133 60.5692 11.8986 14.0057 178.2738 75.8688 178.5544 -11.4178 3.0928 -0.8097 0.0000 0.0000 0.0000 8.4759 2.6224 -0.0956 1.3274 -12.8450 8.4334 -13.1473 -0.0707 -12.5626 0.0000 0.0000 0.0000
-4.3034 39.2285 11.0221 178.7890 51.6671 -178.3050 0.0000 0.0000 0.0000 -3.0670 -12.2616 -17.7346 -4.9319 -12.5066 16.5260 8.7941 -1.0166 1.9169 0.0000 0.0000 -0.0000 0.0000 0.0000 0.0000 -13.7507 0.1295 8.5677 2.8087 -2.6888 30.1503 0.0000 0.0000 0.0000 -19.7517 39.5473 -32.5656 0.0000 0.0000 0.0000 -18.4857 -7.3961 2.7291 -51.7737 -33.4200 19.7609 -34.3404 -86.2602 -8.6181 21.7075 3.7072 -0.3330 0.0000 0.0000 0.0000 11.5738 0.8686 0.8130 60.5593 11.9076 14.0501 178.2794 75.8908 178.6001 -11.4216 3.0831 -0.8091 0.0000 0.0000 0.0000 8.4598 2.5878 -0.1554 1.3367 -12.8315 8.4505 -13.1475 -0.0706 -12.5589 0.0000 0.0000 0.0000
